<mxfile host="app.diagrams.net" modified="2024-01-09T06:12:58.526Z" agent="Mozilla/5.0 (Windows NT 10.0; Win64; x64) AppleWebKit/537.36 (KHTML, like Gecko) Chrome/120.0.0.0 Safari/537.36" etag="Nu1nZF_UJj-mXKJzG4XQ" version="22.1.17" type="github">
  <diagram name="Page-1" id="D1HFH0a1fzXVfHr8Q-Nq">
    <mxGraphModel dx="2074" dy="1145" grid="1" gridSize="10" guides="1" tooltips="1" connect="1" arrows="1" fold="1" page="1" pageScale="1" pageWidth="850" pageHeight="1100" math="0" shadow="0">
      <root>
        <mxCell id="0" />
        <mxCell id="1" parent="0" />
        <mxCell id="TjPcV2cESMUVfcX7uj38-3" value="语音服务" style="whiteSpace=wrap;html=1;aspect=fixed;" vertex="1" parent="1">
          <mxGeometry x="310" y="60" width="180" height="180" as="geometry" />
        </mxCell>
        <mxCell id="TjPcV2cESMUVfcX7uj38-4" style="edgeStyle=orthogonalEdgeStyle;rounded=0;orthogonalLoop=1;jettySize=auto;html=1;exitX=1;exitY=0.5;exitDx=0;exitDy=0;entryX=0;entryY=0.5;entryDx=0;entryDy=0;" edge="1" parent="1" source="TjPcV2cESMUVfcX7uj38-1" target="TjPcV2cESMUVfcX7uj38-2">
          <mxGeometry relative="1" as="geometry" />
        </mxCell>
        <mxCell id="TjPcV2cESMUVfcX7uj38-1" value="语音板" style="rounded=0;whiteSpace=wrap;html=1;" vertex="1" parent="1">
          <mxGeometry x="100" y="70" width="120" height="60" as="geometry" />
        </mxCell>
        <mxCell id="TjPcV2cESMUVfcX7uj38-2" value="ASR" style="rounded=1;whiteSpace=wrap;html=1;" vertex="1" parent="1">
          <mxGeometry x="340" y="70" width="120" height="60" as="geometry" />
        </mxCell>
        <mxCell id="TjPcV2cESMUVfcX7uj38-9" style="edgeStyle=orthogonalEdgeStyle;rounded=0;orthogonalLoop=1;jettySize=auto;html=1;exitX=0.5;exitY=0;exitDx=0;exitDy=0;entryX=0.5;entryY=1;entryDx=0;entryDy=0;" edge="1" parent="1" source="TjPcV2cESMUVfcX7uj38-5" target="TjPcV2cESMUVfcX7uj38-3">
          <mxGeometry relative="1" as="geometry" />
        </mxCell>
        <mxCell id="TjPcV2cESMUVfcX7uj38-5" value="bns" style="rounded=1;whiteSpace=wrap;html=1;" vertex="1" parent="1">
          <mxGeometry x="340" y="310" width="120" height="60" as="geometry" />
        </mxCell>
        <mxCell id="TjPcV2cESMUVfcX7uj38-10" style="edgeStyle=orthogonalEdgeStyle;rounded=0;orthogonalLoop=1;jettySize=auto;html=1;exitX=0.5;exitY=0;exitDx=0;exitDy=0;" edge="1" parent="1" source="TjPcV2cESMUVfcX7uj38-6" target="TjPcV2cESMUVfcX7uj38-5">
          <mxGeometry relative="1" as="geometry" />
        </mxCell>
        <mxCell id="TjPcV2cESMUVfcX7uj38-6" value="鉴权服务器1" style="rounded=0;whiteSpace=wrap;html=1;" vertex="1" parent="1">
          <mxGeometry x="160" y="470" width="120" height="60" as="geometry" />
        </mxCell>
        <mxCell id="TjPcV2cESMUVfcX7uj38-11" style="edgeStyle=orthogonalEdgeStyle;rounded=0;orthogonalLoop=1;jettySize=auto;html=1;exitX=0.5;exitY=0;exitDx=0;exitDy=0;" edge="1" parent="1" source="TjPcV2cESMUVfcX7uj38-7">
          <mxGeometry relative="1" as="geometry">
            <mxPoint x="400" y="370" as="targetPoint" />
          </mxGeometry>
        </mxCell>
        <mxCell id="TjPcV2cESMUVfcX7uj38-7" value="鉴权服务器2" style="rounded=0;whiteSpace=wrap;html=1;" vertex="1" parent="1">
          <mxGeometry x="340" y="470" width="120" height="60" as="geometry" />
        </mxCell>
        <mxCell id="TjPcV2cESMUVfcX7uj38-14" style="edgeStyle=orthogonalEdgeStyle;rounded=0;orthogonalLoop=1;jettySize=auto;html=1;exitX=0.5;exitY=0;exitDx=0;exitDy=0;entryX=0.5;entryY=1;entryDx=0;entryDy=0;" edge="1" parent="1" source="TjPcV2cESMUVfcX7uj38-8" target="TjPcV2cESMUVfcX7uj38-5">
          <mxGeometry relative="1" as="geometry" />
        </mxCell>
        <mxCell id="TjPcV2cESMUVfcX7uj38-8" value="鉴权服务器3" style="rounded=0;whiteSpace=wrap;html=1;" vertex="1" parent="1">
          <mxGeometry x="510" y="470" width="120" height="60" as="geometry" />
        </mxCell>
      </root>
    </mxGraphModel>
  </diagram>
</mxfile>
